<!DOCTYPE svg PUBLIC "-//W3C//DTD SVG 1.1//EN" "http://www.w3.org/Graphics/SVG/1.1/DTD/svg11.dtd">
<svg version="1.1" id="Calque_1" xmlns="http://www.w3.org/2000/svg" xmlns:xlink="http://www.w3.org/1999/xlink" x="0px" y="0px"
	 width="63.556px" height="74.074px" viewBox="18.691 -1.593 63.556 74.074" enable-background="new 18.691 -1.593 63.556 74.074"
	 xml:space="preserve">
<g>
	<path d="M79.932,41.7l-2.551-4.445c-0.576,4.033-2.223,6.996-4.197,6.996V24.498c0.822,0,1.563,0.494,2.14,1.317v-4.362
		c0-12.757-10.288-23.045-23.046-23.045h-3.786c-12.757,0-23.045,10.288-23.045,23.045v4.444c0.659-0.823,1.399-1.317,2.14-1.317
		v19.753c-1.975,0-3.622-2.963-4.198-6.996l-2.551,4.444c-4.609,8.395-1.564,15.556,6.914,17.367
		c3.622,7.9,11.605,13.333,20.823,13.333h3.785c9.219,0,17.202-5.433,20.906-13.333C81.742,57.338,84.788,50.177,79.932,41.7z
		 M51.125,67.379h-1.316c-4.691,0-8.478-3.786-8.478-8.478v-4.774c2.963-0.658,6.008-2.551,9.054-2.551
		c3.045,0,6.09,1.893,9.136,2.551v4.774C59.604,63.593,55.816,67.379,51.125,67.379z M68.656,39.807
		c0,5.514-3.457,10.124-8.395,11.934c-0.412-0.658-1.234-1.316-1.976-1.481c-5.186-0.905-10.453-0.905-15.638,0
		c-0.741,0.165-1.563,0.741-1.975,1.399c-4.856-1.811-8.23-6.419-8.23-11.934V27.049c0-4.033,4.609-7.407,10.206-7.407
		c3.21,0,6.008,1.07,7.901,2.716c1.894-1.646,4.691-2.716,7.902-2.716c5.596,0,10.205,3.292,10.205,7.407V39.807z"/>
	<path d="M48.739,38.737c-1.646-1.07-3.21-0.823-3.457,0.658c-0.329,1.399,1.07,2.305,2.963,1.975
		C50.138,40.959,50.385,39.807,48.739,38.737z"/>
	<path d="M52.359,38.737c-1.646,1.07-1.398,2.222,0.494,2.633c1.894,0.33,3.211-0.494,2.963-1.975
		C55.488,37.996,53.924,37.667,52.359,38.737z"/>
	<path d="M41.331,27.955c-2.551,0-4.609,2.058-4.609,4.609h9.136C45.858,30.012,43.8,27.955,41.331,27.955z"/>
	<path d="M59.604,27.955c-2.553,0-4.609,2.058-4.609,4.609h9.136C64.212,30.012,62.154,27.955,59.604,27.955z"/>
</g>
</svg>
