<svg xmlns="http://www.w3.org/2000/svg" xmlns:xlink="http://www.w3.org/1999/xlink" viewBox="0 0 400.48 459.84"><defs><path id="a" d="M0 0h400.48v459.84H0z"/></defs><clipPath id="b"><use xlink:href="#a" overflow="visible"/></clipPath><path clip-path="url(#b)" fill="#1B1B1B" d="M390.823 229.208C372.463 87.533 209.03 10.998 200.555 10.998c-8.316 0-165.77 76.887-189.077 210.935-2.094 11.362-3.196 23.07-3.196 35.04 0 106.19 86.083 192.273 192.273 192.273s192.27-86.083 192.27-192.274c0-9.43-.69-18.698-2.002-27.764"/><path clip-path="url(#b)" fill="#FFF" d="M333.08 236.678c-14.615-112.764-144.695-173.68-151.442-173.68-6.62 0-131.942 61.197-150.493 167.89-1.665 9.044-2.543 18.363-2.543 27.89 0 84.52 68.516 153.036 153.036 153.036s153.035-68.518 153.035-153.036c0-7.507-.55-14.882-1.594-22.1"/><path clip-path="url(#b)" fill="#1B1B1B" d="M191.085 212.25c0-2.455.853-4.484 2.563-6.086 1.707-1.602 3.63-2.403 5.766-2.403 2.027 0 3.896.81 5.607 2.41 1.71 1.6 2.57 3.63 2.57 6.09s-.85 4.46-2.56 6.01c-1.71 1.55-3.58 2.33-5.6 2.33-2.13 0-4.06-.77-5.76-2.32-1.71-1.55-2.56-3.55-2.56-6.01m14.74 83.3h-13.3V235.5h13.3v60.07zm18.74-120.14h13.3v120.13h-13.3zm74.16 58.63l7.85 7.85c-3.63 3.42-7.05 6.65-10.25 9.69-3.2 3.05-6.62 6.28-10.25 9.69 4.17 5.77 8.33 11.48 12.5 17.14s8.33 11.38 12.49 17.14H295.7c-3.098-4.27-6.247-8.54-9.45-12.81-3.204-4.26-6.354-8.54-9.45-12.81-1.28 1.18-2.59 2.4-3.925 3.68-1.34 1.29-2.646 2.52-3.928 3.69v18.27h-13.3V175.41h13.296v86.34c5.128-4.808 10.094-9.425 14.9-13.857 4.805-4.428 9.77-9.048 14.896-13.855M87.93 347.03h-2.34c-.77-1.785-1.525-3.575-2.268-5.372-.746-1.796-1.5-3.586-2.27-5.37h-9.33c-.74 1.784-1.49 3.574-2.246 5.37-.756 1.797-1.518 3.587-2.286 5.37h-2.31l5.76-13.603 5.76-13.602 5.76 13.602 5.76 13.604M76.75 326.1c-.05-.197-.106-.39-.167-.575-.06-.188-.117-.38-.166-.577-.497 1.56-1.08 3.098-1.748 4.608-.67 1.513-1.33 3.023-1.97 4.534h7.39c-.57-1.338-1.13-2.67-1.68-3.995-.55-1.327-1.1-2.66-1.67-3.996m27.87 12.01v-2.23h5.02c.72 0 1.21.15 1.49.46.27.31.41.85.41 1.62v7.51c-1 .57-2.06 1.02-3.18 1.35-1.13.33-2.32.5-3.59.5-1.84 0-3.56-.35-5.17-1.04-1.61-.7-3.02-1.64-4.22-2.85-1.21-1.2-2.15-2.61-2.85-4.22-.7-1.61-1.04-3.34-1.04-5.17 0-1.84.34-3.56 1.04-5.19.69-1.62 1.64-3.04 2.84-4.24 1.2-1.2 2.6-2.16 4.21-2.86 1.61-.71 3.33-1.06 5.16-1.06 1.26 0 2.46.16 3.58.48 1.13.32 2.2.78 3.21 1.37-.2.32-.41.64-.63.95-.23.31-.45.62-.67.94-1.66-1.01-3.49-1.52-5.5-1.52-1.51 0-2.93.29-4.26.87s-2.48 1.38-3.47 2.4c-.99 1.02-1.78 2.2-2.36 3.55-.58 1.35-.87 2.78-.87 4.29 0 1.53.28 2.97.85 4.31.57 1.34 1.35 2.51 2.34 3.51.99 1 2.15 1.79 3.47 2.38 1.32.58 2.74.87 4.25.87 1.61 0 3.11-.34 4.5-1v-5.02c0-.35-.06-.6-.17-.76-.11-.16-.37-.24-.76-.24h-3.68zm12.04 8.92v-26.02h15.72v2.23h-13.41v9.59h11.96v2.19h-11.96v9.81h13.94v2.19M161.63 321v27.2c-3.32-3.69-6.62-7.356-9.904-10.986-3.283-3.63-6.585-7.29-9.905-10.984-.12-.172-.24-.334-.35-.48-.11-.145-.23-.31-.35-.48.03.2.05.4.06.596.01.2.03.4.06.598v20.556h-2.3v-27.2c3.32 3.74 6.62 7.46 9.91 11.15 3.29 3.693 6.59 7.41 9.91 11.15.12.175.24.336.35.485l.36.48-.06-.59c-.01-.2-.03-.398-.06-.596v-20.88h2.31zm23.936 22.59l1.264 1.86c-.99.57-2.05 1.02-3.177 1.356-1.128.333-2.323.5-3.586.5-1.833 0-3.556-.348-5.166-1.04-1.61-.694-3.01-1.643-4.21-2.845-1.2-1.2-2.15-2.6-2.84-4.21-.69-1.61-1.04-3.33-1.04-5.16s.35-3.56 1.04-5.18c.7-1.62 1.64-3.03 2.85-4.24 1.2-1.2 2.61-2.15 4.22-2.86 1.61-.71 3.34-1.06 5.17-1.06 1.27 0 2.46.16 3.59.48 1.13.32 2.2.78 3.22 1.38-.2.33-.41.64-.63.95-.22.31-.44.63-.66.95-1.66-1.01-3.49-1.52-5.5-1.52-1.51 0-2.93.29-4.25.88s-2.48 1.38-3.47 2.4c-.99 1.02-1.78 2.2-2.36 3.55-.58 1.35-.87 2.78-.87 4.29 0 1.54.29 2.98.86 4.32.57 1.34 1.35 2.51 2.34 3.51.99 1 2.15 1.8 3.48 2.38 1.33.58 2.75.87 4.26.87 1.02 0 1.98-.13 2.9-.39.92-.26 1.8-.63 2.64-1.13m5.76 3.42V321h15.72v2.23H193.7v9.59h11.97v2.19H193.7v9.813h13.94v2.19M256.69 321h2.344c-1.934 4.56-3.855 9.096-5.76 13.605l-5.763 13.604-6.58-15.5c-.05-.2-.11-.39-.19-.58-.07-.19-.13-.38-.18-.58-.42 1.38-.91 2.78-1.47 4.18-.56 1.4-1.14 2.8-1.76 4.2-.62 1.4-1.24 2.79-1.87 4.18-.63 1.39-1.23 2.75-1.8 4.09-1.93-4.56-3.85-9.1-5.76-13.61s-3.83-9.05-5.76-13.61h2.34c1.49 3.52 2.96 7.01 4.4 10.46 1.45 3.45 2.93 6.94 4.44 10.46.05.19.11.39.17.57.06.19.12.38.17.57.35-1.19.76-2.36 1.23-3.53.47-1.16.96-2.33 1.47-3.51.51-1.18 1.03-2.34 1.56-3.5.54-1.15 1.04-2.3 1.51-3.44-.57-1.36-1.14-2.71-1.71-4.05-.57-1.34-1.14-2.69-1.71-4.05h2.31c1.49 3.52 2.96 7 4.43 10.46 1.46 3.46 2.95 6.94 4.46 10.46.05.2.11.39.17.58.06.19.12.38.17.57.05-.2.11-.39.17-.58.06-.19.12-.38.17-.58 1.48-3.52 2.96-7.01 4.42-10.47l4.42-10.46m6.54 26.02v-26h15.72v2.23h-13.43v9.59h11.97v2.2h-11.97v9.81h13.94v2.2m4.76 0v-26.02h6.35c1.19 0 2.27.12 3.25.37.97.24 1.82.63 2.52 1.15.71.52 1.25 1.19 1.63 2.02.39.83.58 1.81.58 2.95 0 1.53-.37 2.89-1.11 4.05-.74 1.16-1.88 1.96-3.42 2.38.72.14 1.41.39 2.07.74.65.35 1.24.79 1.74 1.34s.91 1.18 1.21 1.89c.3.72.45 1.52.45 2.41 0 1.11-.23 2.08-.68 2.91-.46.83-1.07 1.52-1.84 2.08s-1.65.98-2.64 1.26c-.99.29-2.02.43-3.09.43h-7.02zm2.3-23.79v9.59H291c1.61 0 2.88-.47 3.82-1.4.94-.93 1.41-2.14 1.41-3.63 0-1.64-.498-2.81-1.49-3.51s-2.277-1.06-3.86-1.06h-4.35zm0 11.82v9.77h4.53c.84 0 1.63-.1 2.38-.3.74-.2 1.39-.5 1.95-.9s1-.9 1.32-1.51c.32-.61.48-1.31.48-2.1 0-.87-.19-1.62-.56-2.25-.37-.63-.87-1.15-1.5-1.56-.63-.41-1.35-.71-2.15-.89-.8-.19-1.63-.28-2.47-.28h-3.98zM53.93 201.24h13.222v2.28c.24 4.055.452 7.73.633 11.024.182 3.295.39 6.97.634 11.024 2.53-8.11 6.36-14.484 11.5-19.133 5.13-4.645 11.14-7.135 18.02-7.476 6.64 0 11.98 2.32 16.03 6.96 4.04 4.65 6.43 10.77 7.15 18.37 2.65-7.77 6.52-13.85 11.59-18.25 5.07-4.39 10.92-6.76 17.57-7.1 7.12 0 12.74 2.62 16.84 7.85 4.1 5.24 6.27 12.08 6.52 20.52v68.93h-15.03v-59.3c-.25-4.57-1.42-8.49-3.53-11.79-2.12-3.29-5.47-5.11-10.05-5.45-3.14 0-6.13.76-8.97 2.28-2.84 1.52-5.35 3.63-7.52 6.33s-3.93 5.92-5.25 9.63c-1.33 3.72-2 7.77-2 12.16v46.12h-15.03v-59.3c-.25-4.56-1.42-8.49-3.53-11.78-2.12-3.3-5.47-5.11-10.06-5.45-3.15 0-6.13.76-8.97 2.28-2.84 1.52-5.35 3.63-7.52 6.33-2.18 2.7-3.93 5.91-5.26 9.63-1.33 3.71-1.99 7.77-1.99 12.16v46.12h-15V201.2z"/><path clip-path="url(#b)" d="M261.513 305.266c.085.1.168.193.25.285.077.1.154.19.228.29-.32.25-.67.44-1.05.58-.38.14-.79.21-1.23.21-.5 0-.97-.09-1.41-.28-.43-.19-.81-.44-1.14-.76-.32-.32-.58-.69-.77-1.13-.19-.43-.28-.9-.28-1.41 0-.49.1-.95.29-1.4.19-.44.45-.82.78-1.14.33-.32.71-.57 1.14-.76.44-.19.91-.28 1.41-.28.45 0 .86.07 1.26.21.39.14.74.34 1.05.58-.09.1-.17.19-.25.29l-.25.29c-.24-.2-.52-.35-.82-.46-.3-.11-.62-.17-.98-.17-.4 0-.78.08-1.12.23-.34.15-.64.35-.89.61s-.45.57-.6.92c-.14.35-.22.72-.22 1.11s.08.76.22 1.11c.15.35.35.65.6.91s.55.46.9.61c.35.15.72.22 1.13.22.7 0 1.3-.2 1.81-.61m6.52-5.07c-.39.02-.76.09-1.09.22-.34.13-.63.31-.88.53-.24.22-.44.49-.59.79-.14.3-.22.64-.22.99v3.78h-.77v-6.91h.7v1.21c0 .17.01.36.02.57.27-.6.68-1.07 1.23-1.41.54-.34 1.1-.51 1.66-.52l-.06.76zm8.09 1.83l-2.86 1.13-2.85 1.13c.21.47.54.85 1 1.14.46.3.97.44 1.55.44.38 0 .74-.06 1.07-.2.33-.13.62-.32.87-.57.09.1.17.19.24.29s.16.19.24.29c-.32.29-.68.53-1.08.7-.41.17-.85.26-1.33.26-.5 0-.97-.09-1.41-.28-.43-.19-.81-.45-1.14-.77-.32-.32-.58-.7-.77-1.14-.19-.44-.28-.9-.28-1.41 0-.49.1-.96.29-1.4s.45-.82.77-1.14c.33-.32.71-.57 1.15-.76.44-.19.907-.28 1.41-.28.37 0 .72.07 1.05.2.33.13.635.31.91.54.276.23.52.5.73.81.21.31.37.66.48 1.04m-3.17-1.84c-.37 0-.717.068-1.05.197-.33.13-.62.31-.865.54-.24.24-.44.51-.59.81-.16.31-.25.64-.29 1-.013.15-.02.3-.01.44.007.14.02.28.047.42.82-.337 1.64-.66 2.47-.99l2.48-.99c-.21-.42-.51-.76-.902-1.02-.39-.27-.822-.4-1.29-.4m4.4 2.86c0-.49.097-.96.288-1.39.19-.44.446-.82.77-1.15.325-.32.71-.58 1.15-.77.44-.19.916-.28 1.42-.28.355 0 .69.05 1.01.15.32.1.61.24.867.407.26.17.48.36.654.57.18.22.31.43.397.64 0-.27.01-.54.03-.81.02-.27.03-.54.05-.81h.62v6.9h-.7v-.83c0-.133 0-.262.01-.39 0-.12.01-.25.01-.382-.08.21-.2.42-.38.63-.18.21-.397.4-.65.56-.25.16-.54.3-.86.39-.32.1-.68.15-1.06.15-.5 0-.97-.1-1.41-.29-.44-.19-.825-.45-1.15-.77-.324-.32-.58-.69-.77-1.13-.2-.43-.29-.9-.29-1.402m.774 0c0 .4.07.768.22 1.11.15.34.35.64.6.9s.55.46.9.606c.35.15.73.22 1.13.22s.78-.07 1.13-.22c.34-.15.64-.35.9-.61.25-.26.46-.56.6-.904.15-.34.22-.71.22-1.1s-.07-.76-.22-1.11c-.15-.35-.35-.65-.61-.91s-.56-.46-.9-.61c-.34-.145-.72-.22-1.12-.22s-.78.075-1.13.22c-.35.15-.65.35-.904.61-.25.26-.45.56-.595.91-.15.35-.22.72-.22 1.11m9.87-7.94h.77v4.52h2.12v.75h-2.12v6.13h-.8v-6.13h-1.62v-.76h1.6m4.164-2.47c0-.17.06-.32.184-.434s.26-.18.42-.18c.16 0 .3.06.42.18.12.114.187.26.187.43s-.06.314-.18.43c-.12.116-.262.175-.42.175-.16 0-.3-.06-.42-.17-.125-.12-.19-.26-.19-.43m.98 9.353h-.75v-6.9h.76v6.907zm1.97-3.46c0-.49.1-.96.29-1.4.19-.44.45-.823.77-1.15.33-.323.71-.58 1.15-.77.44-.19.91-.28 1.41-.28.51 0 .98.097 1.42.29.44.19.83.45 1.16.77.33.32.59.71.78 1.15.19.44.29.91.29 1.4 0 .5-.09.97-.282 1.406-.19.43-.45.81-.78 1.13-.33.32-.71.57-1.16.763-.44.19-.91.29-1.41.29s-.97-.1-1.41-.287c-.43-.19-.81-.447-1.14-.767-.32-.32-.58-.694-.77-1.13-.19-.435-.28-.905-.28-1.41m.78 0c0 .393.07.76.22 1.103.147.34.35.64.608.9s.56.46.9.603c.34.15.71.22 1.107.22s.76-.07 1.1-.22c.34-.146.645-.35.9-.607.26-.26.465-.56.62-.9.15-.34.23-.71.23-1.106s-.08-.76-.23-1.105c-.15-.346-.36-.65-.62-.905s-.56-.46-.9-.61c-.34-.16-.71-.23-1.104-.23s-.767.07-1.11.23c-.35.15-.65.36-.904.61s-.46.56-.61.91c-.15.34-.22.71-.22 1.1m9.13-3.45h.7v1.217c0 .17.005.36.02.57.24-.58.636-1.05 1.176-1.4.54-.36 1.158-.534 1.84-.534.68 0 1.21.19 1.61.57.39.38.6.88.63 1.49v4.99h-.77v-4.79c-.02-.39-.17-.73-.43-1.03-.264-.29-.65-.45-1.17-.48-.37 0-.724.07-1.07.2-.344.13-.645.3-.9.52-.26.22-.468.49-.62.79-.15.31-.23.65-.23 1.02v3.78h-.77v-6.9z"/></svg>