<svg version="1.1" id="threesixty" xmlns="http://www.w3.org/2000/svg" xmlns:xlink="http://www.w3.org/1999/xlink" x="0px" y="0px"
	 viewBox="28.7 8.3 40.3 24.3" enable-background="new 28.7 8.3 40.3 24.3" xml:space="preserve">
<path d="M61.3,13c-3.2-1.3-7.3-2-11.7-2c-4.4,0-8.6,0.7-11.7,2c-2.1,0.9-5.8,2.8-5.8,6.2c0,3.4,3.6,5.3,5.8,6.2
	c1.1,0.4,2.2,0.8,3.5,1.1l0-4c-0.7-0.2-1.4-0.4-2-0.7c-2.3-0.9-3.3-2-3.3-2.6c0-0.6,1-1.7,3.3-2.6C42,15.5,45.6,15,49.5,15
	s7.6,0.6,10.3,1.7c2.3,0.9,3.4,2,3.4,2.6c0,0.6-1,1.7-3.4,2.6c-0.9,0.4-2,0.7-3.2,1c0,0-1.4,0.4-2.9,0.6l0.1-4.3l-9.8,5.6l9.6,5.4
	l0-3.1c0.9,0,1.9-0.1,3-0.3c1.6-0.3,3.2-0.8,4.5-1.3c2.2-0.9,5.8-2.8,5.8-6.2C67,15.8,63.4,13.9,61.3,13z"/>
</svg>
