<svg xmlns="http://www.w3.org/2000/svg" style="display: none;">
  
    <symbol id="tifyforms-close" viewBox="0 0 512 512">
      <path d="m293 256l208-207c5-5 8-11 8-18 0-7-3-13-8-18-10-10-26-10-36 0l-208 207-210-210c-10-9-26-9-36 1-9 10-10 25 0 35l210 210-211 210c-5 5-8 11-8 18 0 7 3 13 8 18 10 10 26 10 36 0l211-210 209 210c6 7 16 10 25 7 9-2 16-9 19-18 2-9-1-19-8-25z"/>
    </symbol>
  
    <symbol id="tifyforms-dropdown-list" viewBox="0 0 512 512">
      <path d="m132 206l0 81 376 0 0-81z m353 58l-330 0 0-34 330 0z m-353 117l376 0 0-81-376 0z m23-57l330 0 0 34-330 0z m-23 151l376 0 0-81-376 0z m23-58l330 0 0 34-330 0z m225-238l102 0 0-142-478 0 0 142 376 0z m0-118l79 0 0 94-79 0z m-353 94l0-94 330 0 0 94z m368-58l52 0-26 32z"/>
    </symbol>
  
    <symbol id="tifyforms-input-checkbox" viewBox="0 0 512 512">
      <path d="m358 161l0-51-292 0 0 292 292 0 0-119 64-65 0 216c0 8-3 17-9 23-6 6-15 9-23 9l-356 0c-18 0-32-14-32-32l0-356c0-18 14-32 32-32l356 0c18 0 32 14 32 32l0 18 33-34c8-9 20-12 31-10 12 3 21 12 24 23 3 12-1 24-9 32l-255 261c-6 6-15 9-23 9l0 0c-9 0-17-3-23-9l-105-105c-13-13-13-33 0-46 12-12 33-12 45 0l83 82z"/>
    </symbol>
  
    <symbol id="tifyforms-input-file" viewBox="0 0 512 512">
      <path d="m383 392c-11 0-19 8-19 19l0 19-324 0 0-232 51 0c11 0 19-7 19-18 0-11-8-19-19-19l-69 0c-11 0-19 8-19 19l0 269c0 11 8 19 19 19l361 0c11 0 19-8 19-19l0-38c0-11-8-19-19-19z m121-202l-139-140c-13-13-32-2-32 14l0 62c-73 3-131 27-172 68-63 62-63 145-63 148 0 11 9 19 19 19 7 0 13-3 16-9 36-64 131-74 184-74l16 0 0 64c0 16 20 26 32 14l139-140c4-4 5-9 5-14 0-4-1-8-5-12z m-133 106l0-35c0-10-7-18-17-19-12-1-25-2-37-2-45 0-116 7-169 42 8-20 20-42 40-62 37-36 93-56 164-56 11 0 19-8 19-19l0-35 93 92z"/>
    </symbol>
  
    <symbol id="tifyforms-input-password" viewBox="0 0 512 512">
      <path d="m390 229l-221 0 0-100c0-48 39-87 87-87 48 0 87 39 87 87l0 40c0 11 9 20 20 20 11 0 20-9 20-20l0-40c0-70-57-127-127-127-70 0-127 57-127 127l0 100-7 0c-18 0-33 15-33 34l0 213c0 19 15 34 33 34l268 0c18 0 33-15 33-34l0-213c0-19-15-34-33-34z m-7 241l-254 0 0-201 254 0z m-147-86l0 46 40 0 0-46c16-9 23-27 19-45-5-17-21-30-39-30-18 0-34 13-39 30-4 18 3 36 19 45z"/>
    </symbol>
  
    <symbol id="tifyforms-input-radio" viewBox="0 0 512 512">
      <path d="m256 129c-71 0-127 56-127 127 0 71 56 127 127 127 71 0 127-56 127-127 0-71-56-127-127-127z m0-127c-140 0-254 114-254 254 0 140 114 254 254 254 140 0 254-114 254-254 0-140-114-254-254-254z m0 457c-112 0-203-91-203-203 0-112 91-203 203-203 112 0 203 91 203 203 0 112-91 203-203 203z"/>
    </symbol>
  
    <symbol id="tifyforms-input-text" viewBox="0 0 512 512">
      <path d="m305 194l0-33-288 0c-7 0-12 6-12 13l0 164c0 7 5 13 12 13l288 0 0-33-267 0 0-124z m190-33l-109 0 0 33 88 0 0 124-88 0 0 33 109 0c7 0 12-6 12-13l0-164c0-7-5-13-12-13z m-102 209l-30 0c0 0-1-1-1-2l0-224c0-1 1-2 1-2l30 0c7 0 13-5 13-12l0-8c0-7-6-13-13-13l-30 0c-6 0-12 2-17 5-6-3-12-5-18-5l-30 0c-7 0-12 6-12 13l0 8c0 7 5 12 12 12l30 0c1 0 1 1 1 2l0 224c0 1 0 2-1 2l-30 0c-7 0-12 5-12 12l0 8c0 7 5 13 12 13l30 0c6 0 12-2 18-5 5 3 11 5 17 5l30 0c7 0 13-6 13-13l0-8c0-7-6-12-13-12z"/>
    </symbol>
  
    <symbol id="tifyforms-integrity" viewBox="0 0 512 512">
      <path d="m391 69l-20 28c51 37 81 96 81 159 0 108-88 196-196 196l0-20c0-1-1-2-1-2-1-1-2-1-3 0l-54 37c-1 1-1 1-1 2 0 1 0 2 1 2l54 38c1 0 2 0 3 0 0-1 1-2 1-3l0-20c127 0 230-103 230-230 0-74-35-143-95-187z m1 163l-27-4c-3-10-7-20-12-29l16-22c3-4 2-10-1-14l-10-9-10-10c-3-3-9-3-13 0l-22 15c-9-5-19-9-29-12l-4-27c-1-5-6-8-11-8l-26 0c-5 0-10 3-11 8l-4 27c-11 3-21 7-30 13l-22-16c-4-3-9-2-13 1l-10 10-9 9c-4 4-4 9-1 14l16 22c-6 9-10 19-12 29l-27 4c-5 1-8 5-8 10l0 27c0 5 3 9 8 10l27 5c3 10 7 20 12 29l-15 22c-3 4-3 9 1 13l9 10 10 9c3 4 9 4 13 1l23-16c9 6 18 10 29 12l4 27c1 5 5 8 10 8l27 0c5 0 9-3 10-8l5-27c10-3 19-7 28-12l22 16c4 3 10 2 13-1l19-19c4-4 4-10 2-14l-16-22c5-9 9-19 12-29l27-5c5 0 8-5 8-10l0-26c0-5-3-10-8-11z m-97 61c-21 21-55 21-76 0-21-21-21-54 0-75 21-21 55-21 75 0 21 20 21 54 1 75z m19-252l-54-38c-1 0-2 0-3 0 0 1-1 2-1 3l0 20c-127 1-230 103-230 230 0 74 35 143 95 187l20-28c-51-37-81-96-81-159 0-108 88-196 196-196l0 20c0 1 1 2 1 2 1 1 2 1 3 0l54-37c1-1 1-1 1-2 0-1 0-2-1-2z"/>
    </symbol>
  
    <symbol id="tifyforms-minus" viewBox="0 0 512 512">
      <path d="m3 239l506 0 0 34-506 0z"/>
    </symbol>
  
    <symbol id="tifyforms-plus" viewBox="0 0 512 512">
      <path d="m510 239l-237 0 0-237-34 0 0 237-237 0 0 34 237 0 0 237 34 0 0-237 237 0z"/>
    </symbol>
  
    <symbol id="tifyforms-reset" viewBox="0 0 512 512">
      <path d="m68 288l-66 0 0 158 47-43c46 65 122 107 207 107 129 0 236-97 252-222l-64 0c-15 90-94 158-188 158-67 0-126-34-160-86l79-72z m188-286c-129 0-236 97-252 222l64 0c15-90 94-158 188-158 69 0 129 36 162 91l-67 67 159 0 0-158-46 45c-46-66-122-109-208-109z"/>
    </symbol>
  
    <symbol id="tifyforms-select-chevron" viewBox="0 0 512 512">
      <path d="m256 397c-8 1-15-3-21-8l-224-224c-11-12-11-30 0-42 11-11 30-11 42 0l203 204 203-204c12-11 31-11 42 0 11 12 11 30 0 42l-224 224c-6 5-13 8-21 8z"/>
    </symbol>
  
    <symbol id="tifyforms-sort" viewBox="0 0 512 512">
      <path d="m273 340c-8-8-22-6-30 2l-79 90 0-358c0-12-10-21-22-21-12 0-21 9-21 21l0 358-79-90c-9-8-22-10-30-2-9 8-10 21-3 30l117 131c9 10 24 9 31 0l118-131c8-9 7-23-2-30z m230-197l-116-131c-11-11-23-11-32 0l-118 131c-8 8-7 22 2 30 13 10 26 3 30-3l79-89 0 356c0 12 10 22 22 22 11 0 21-9 21-20l0-358 79 90c9 8 22 9 30 2 9-9 10-22 3-30z"/>
    </symbol>
  
    <symbol id="tifyforms-step" viewBox="0 0 512 512">
      <path d="m418 10c-4-4-9-6-15-6l-42 0c-6 0-11 2-15 6-4 4-6 9-6 15l0 222c-1-2-2-4-4-6l-233-233c-4-4-8-5-11-4-3 1-4 5-4 10l0 484c0 5 1 9 4 10 3 1 7 0 11-4l233-233c1-2 3-4 4-6l0 222c0 6 2 11 6 15 4 4 9 6 15 6l42 0c6 0 11-2 15-6 4-4 6-9 6-15l0-462c0-6-2-11-6-15z"/>
    </symbol>
  
    <symbol id="tifyforms-submit" viewBox="0 0 512 512">
      <path d="m390 271l0-227-339 0 0 424 156 0c11 0 20 9 20 20 0 11-9 20-20 20l-176 0c-11 0-20-9-20-20l0-464c0-11 9-20 20-20l379 0c11 0 20 9 20 20l0 247c0 11-9 21-20 21-11 0-20-10-20-21z m104 50c-4-4-9-6-14-5-6 0-11 2-14 6l-112 124-56-54c-8-7-20-7-28 1-8 8-8 21 0 29l71 68c4 4 9 6 15 6l0 0c6 0 11-3 15-7l125-139c8-9 7-22-2-29z m-179-199l-182 0c-12 0-21 9-21 21 0 11 9 20 21 20l182 0c12 0 21-9 21-20 0-12-9-21-21-21z m21 132c0-11-9-20-21-20l-182 0c-12 0-21 9-21 20 0 12 9 21 21 21l182 0c12 0 21-9 21-21z m-203 88c-12 0-21 9-21 21 0 11 9 20 21 20l54 0c11 0 20-9 20-20 0-12-9-21-20-21z"/>
    </symbol>
  
    <symbol id="tifyforms-textarea" viewBox="0 0 512 512">
      <path d="m498 417l0-322c8-5 12-14 10-23-2-8-9-15-18-16-8-2-17 3-21 11l-426 0c-4-8-13-13-22-11-9 1-16 9-17 18-1 9 3 18 12 22l0 320c-9 4-14 13-12 23 1 9 8 16 18 17 9 2 18-3 22-12l424 0c4 9 13 13 22 12 9-1 16-7 18-16 2-9-2-18-10-23z m-29 8l-426 0c-2-3-4-6-7-8l0-322c3-2 6-5 7-8l426 0c2 4 5 7 9 9l0 320c-4 2-7 5-9 9z m-384-269c5 0 10-4 10-10l0-5 26 0 0 107-2 0c-5 0-10 5-10 10 0 6 5 10 10 10l24 0c5 0 10-4 10-10 0-5-5-10-10-10l-2 0 0-107 26 0 0 5c0 6 5 10 10 10 6 0 10-4 10-10l0-15c0-6-4-10-10-10l-92 0c-6 0-10 4-10 10l0 15c0 6 4 10 10 10z m136 105c-6 0-10 5-10 10 0 6 4 10 10 10l28 0c5 0 10-4 10-10 0-5-5-10-10-10l-4 0 0-134 4 0c5 0 10-5 10-10 0-6-5-10-10-10l-28 0c-6 0-10 4-10 10 0 5 4 10 10 10l4 0 0 134z m203-108l-117 0c-5 0-10 5-10 10 0 6 5 10 10 10l117 0c5 0 10-4 10-10 0-5-5-10-10-10z m0 52l-117 0c-5 0-10 4-10 10 0 5 5 10 10 10l117 0c5 0 10-5 10-10 0-6-5-10-10-10z m0 112l-339 0c-6 0-10 4-10 10 0 5 4 10 10 10l339 0c5 0 10-5 10-10 0-6-5-10-10-10z m0 51l-339 0c-6 0-10 5-10 10 0 6 4 10 10 10l339 0c5 0 10-4 10-10 0-5-5-10-10-10z"/>
    </symbol>
  
    <symbol id="tifyforms-validate" viewBox="0 0 512 512">
      <path d="m484 80l-299 299-157-156-26 26 183 183 325-326z"/>
    </symbol>
  
</svg>
